<svg viewBox="0 0 40 40" fill="none" xmlns="http://www.w3.org/2000/svg">
<path d="M14.8389 28.9375C14.7997 28.941 14.7631 28.9387 14.7295 28.9336C14.7496 28.9565 14.769 28.973 14.7822 28.9814C14.8034 28.9948 14.8226 29.0008 14.8389 29.0039V28.9375ZM14.8389 28.9375L14.8447 29.002C14.8544 28.9984 14.8687 28.9936 14.8848 28.9824C14.8992 28.9723 14.9185 28.9519 14.9395 28.9248C14.9082 28.9319 14.8744 28.9375 14.8389 28.9375ZM12.4463 28.0889C12.4748 28.1174 12.5056 28.1402 12.5361 28.1582C12.5123 28.1608 12.4907 28.1614 12.4736 28.1592C12.4379 28.1545 12.4163 28.1427 12.4053 28.1357L12.4463 28.0889ZM12.4463 28.0889C12.417 28.0635 12.3936 28.0349 12.374 28.0059C12.3697 28.0468 12.374 28.076 12.377 28.0889C12.3834 28.1165 12.3918 28.1252 12.3965 28.1299C12.3958 28.1293 12.3976 28.1302 12.4014 28.1328L12.4463 28.0889ZM11.5986 27.2148C11.6007 27.2239 11.601 27.232 11.6035 27.2383C11.6184 27.2557 11.6426 27.279 11.6855 27.2949C11.7165 27.3064 11.7615 27.3129 11.8125 27.3096C11.7679 27.2834 11.7238 27.2457 11.6875 27.1963C11.6815 27.1881 11.6771 27.1792 11.6719 27.1709M11.5986 27.2148L11.6719 27.1709M11.5986 27.2148L11.6719 27.1709M11.5986 27.2148C11.5959 27.2026 11.5918 27.1884 11.5918 27.1709C11.5918 27.1411 11.5985 27.0971 11.6201 27.0508C11.6284 27.0902 11.6463 27.1307 11.6719 27.1709M5.71387 0.5H34.2861C37.1614 0.500227 39.4998 2.83856 39.5 5.71387V34.2861C39.4998 37.1614 37.1614 39.4998 34.2861 39.5H5.71387C2.83856 39.4998 0.500227 37.1614 0.5 34.2861V5.71387C0.500227 2.83856 2.83856 0.500227 5.71387 0.5ZM12.834 28.6904C12.867 28.7979 12.9243 28.8892 12.9834 28.957C13.0924 29.082 13.2394 29.1669 13.3965 29.2119V29.2129C13.4056 29.2161 13.4156 29.2168 13.4248 29.2197C13.4365 29.2227 13.4481 29.228 13.46 29.2305V29.2285C13.6198 29.2715 13.7869 29.2705 13.9375 29.2236C13.9994 29.2044 14.0698 29.1723 14.1387 29.126C14.189 29.1957 14.2516 29.2548 14.3213 29.3018C14.4805 29.4089 14.6652 29.4434 14.8389 29.4355V29.4375C14.8459 29.4375 14.8533 29.4357 14.8604 29.4355C14.8684 29.435 14.8768 29.4363 14.8848 29.4355L14.8838 29.4336C15.0464 29.4261 15.211 29.3802 15.3496 29.2832C15.3885 29.2559 15.4273 29.2224 15.4639 29.1836C15.4997 29.2067 15.5344 29.2273 15.5684 29.2422C15.7344 29.315 15.9215 29.3286 16.0967 29.293L16.0977 29.2939L16.0996 29.293H16.1025L16.1016 29.292C16.2654 29.2586 16.4339 29.1841 16.5645 29.0537C16.6922 28.9259 16.8041 28.7143 16.7598 28.46H16.7617C16.761 28.4553 16.7586 28.4508 16.7578 28.4463C16.7563 28.4388 16.7566 28.4304 16.7549 28.4229H16.7529C16.741 28.3668 16.7251 28.3155 16.7021 28.2695L16.8584 28.1992L16.8965 27.9268C17.0166 27.0787 17.3539 26.5319 17.6816 26.2383L18.5146 25.4922L17.4033 25.3691C15.7267 25.1834 14.203 24.9754 13.0801 24.1855C12.01 23.4328 11.2139 22.0749 11.2139 19.3389C11.2139 18.5742 11.3193 18.0355 11.5156 17.5771C11.7138 17.1147 12.0195 16.6979 12.4775 16.1924L12.6895 15.959L12.5703 15.668C12.4481 15.3692 12.0183 14.049 12.625 12.293C12.7885 12.2935 13.0055 12.3252 13.2764 12.4062C13.6751 12.5255 14.1163 12.7217 14.5352 12.9385C14.9511 13.1537 15.3317 13.3818 15.6094 13.5566C15.7479 13.6439 15.8606 13.7172 15.9375 13.7686C15.9759 13.7942 16.0057 13.8147 16.0254 13.8281C16.0349 13.8347 16.0422 13.8395 16.0469 13.8428C16.0491 13.8443 16.0507 13.8459 16.0518 13.8467L16.0527 13.8477L16.2471 13.9834L16.4746 13.9189C18.7608 13.2743 21.3456 13.2744 23.6318 13.9189L23.8604 13.9834L24.0537 13.8477L24.0547 13.8467C24.0557 13.846 24.0582 13.8444 24.0605 13.8428C24.0653 13.8395 24.0725 13.8346 24.082 13.8281C24.1017 13.8147 24.1315 13.7942 24.1699 13.7686C24.2468 13.7173 24.3587 13.6438 24.4971 13.5566C24.7749 13.3817 25.1561 13.1538 25.5723 12.9385C25.991 12.7218 26.4314 12.5255 26.8301 12.4062C27.1002 12.3255 27.3171 12.2937 27.4805 12.293C28.0864 14.0548 27.6528 15.3751 27.5352 15.6729L27.4209 15.9629L27.6299 16.1924C28.0984 16.7095 28.4384 17.1308 28.6689 17.6006C28.8941 18.0594 29.0263 18.5918 29.0264 19.3389C29.0264 22.0809 28.1983 23.4389 27.0918 24.1914C25.929 24.9821 24.3639 25.1832 22.6855 25.3691L21.5371 25.4961L22.417 26.2461C22.8256 26.5944 23.25 27.3252 23.25 28.6074C23.25 29.9367 23.2501 31.4849 23.2412 32.5C23.2322 33.0045 23.2324 33.3832 23.2324 33.5449C23.2325 33.8462 23.3397 34.2052 23.6289 34.4668C23.9325 34.7413 24.3577 34.8383 24.8467 34.751L24.8828 34.7451L24.917 34.7334C31.0229 32.6981 35.1518 26.8839 35.1426 20.124C35.1421 11.6334 28.2569 5.20515 19.8037 5.20508C11.3332 5.20508 4.83887 11.6504 4.83887 20.125C4.83887 26.8917 9.09986 32.6914 15.1982 34.7334L15.2334 34.7451L15.2705 34.751C15.7614 34.8376 16.1882 34.7425 16.4922 34.4658C16.7816 34.2022 16.8837 33.8418 16.8838 33.5449C16.8838 33.4776 16.882 33.3536 16.8799 33.2051C16.8777 33.0522 16.875 32.8623 16.875 32.6514C16.875 32.2528 16.8723 31.7697 16.8701 31.2871C16.8679 30.8036 16.8662 30.3203 16.8662 29.9199V29.3008L16.2607 29.4307C16.2596 29.4309 16.257 29.432 16.2539 29.4326C16.2478 29.4339 16.2379 29.4359 16.2246 29.4385C16.1978 29.4436 16.1566 29.4511 16.1035 29.46C15.9972 29.4777 15.8424 29.5006 15.6533 29.5205C15.2722 29.5606 14.762 29.5871 14.2334 29.5371C13.2073 29.44 12.2794 29.0798 11.8955 28.1719C11.9442 28.2746 12.0127 28.3655 12.0938 28.4414L12.0928 28.4424C12.0966 28.4462 12.1016 28.4494 12.1055 28.4531C12.1103 28.4574 12.1143 28.4626 12.1191 28.4668V28.4658C12.2464 28.5843 12.4094 28.6753 12.5947 28.6992C12.6702 28.7089 12.7521 28.7072 12.834 28.6904ZM15.9717 28.8633H15.9678C15.9647 28.8628 15.9534 28.8605 15.9365 28.8525C15.9276 28.8483 15.9059 28.8348 15.8799 28.8115C15.9076 28.8137 15.9363 28.8114 15.9658 28.8076L15.9717 28.8633ZM16.1123 28.7656C16.1008 28.7865 16.0894 28.8045 16.0771 28.8174C16.0485 28.8473 16.0258 28.8546 16.0225 28.8555L16.0107 28.7998C16.0478 28.7916 16.0817 28.7801 16.1123 28.7656ZM13.5791 28.7451C13.6146 28.7558 13.6509 28.7608 13.6865 28.7607C13.6517 28.7894 13.6222 28.8023 13.6152 28.8047C13.5922 28.8126 13.578 28.8117 13.5645 28.8086L13.5791 28.7451ZM13.4678 28.707C13.4943 28.72 13.5228 28.7311 13.5537 28.7383L13.5352 28.7998C13.529 28.796 13.5179 28.7873 13.5039 28.7705C13.4943 28.759 13.481 28.7368 13.4678 28.707ZM11.7549 27.8223C11.7748 27.8277 11.7954 27.8339 11.8174 27.8379C11.8169 27.8954 11.8234 27.9502 11.834 27.999C11.8385 28.0198 11.8464 28.0394 11.8525 28.0596C11.8461 28.0416 11.838 28.0242 11.832 28.0059L11.8281 27.9912L11.8223 27.9766L11.8213 27.9756V27.9736C11.8208 27.9724 11.8201 27.9707 11.8193 27.9688C11.8176 27.9645 11.8146 27.9586 11.8115 27.9512C11.8055 27.9365 11.7972 27.9156 11.7861 27.8896C11.7777 27.87 11.7661 27.8477 11.7549 27.8223ZM11.1494 26.4287C11.2031 26.4714 11.2635 26.5001 11.3203 26.5039C11.3071 26.5164 11.294 26.5288 11.2822 26.542C11.2775 26.5433 11.2733 26.5468 11.2686 26.5479C11.2089 26.5613 11.1603 26.556 11.1318 26.5498C11.1035 26.5436 11.0853 26.5343 11.0781 26.5303C11.0705 26.526 11.0668 26.5227 11.0654 26.5215L11.1494 26.4287ZM11.0537 26.2803C11.0657 26.3179 11.085 26.3569 11.1143 26.3945L11.0205 26.4746C11.0196 26.4736 11.0145 26.468 11.0088 26.4561C11.0033 26.4446 10.9943 26.4216 10.9902 26.3877C10.9878 26.3678 10.9877 26.3423 10.9912 26.3135C11.0124 26.3036 11.0332 26.2927 11.0537 26.2803ZM10.5957 25.8525C10.6079 25.8588 10.6195 25.8665 10.6318 25.873C10.6057 25.9162 10.5857 25.9608 10.5713 26.0059C10.5632 25.998 10.5541 25.9912 10.5459 25.9834L10.5957 25.8525ZM10.4453 25.7812C10.4835 25.798 10.522 25.8173 10.5615 25.8369L10.5039 25.9453C10.4561 25.9016 10.4079 25.8585 10.3574 25.8184C10.3534 25.7951 10.3517 25.7701 10.3525 25.7432C10.3827 25.7551 10.4139 25.7674 10.4453 25.7812Z" fill="#171717" stroke="url(#paint0_linear_2259_45)"/>
<defs>
<linearGradient id="paint0_linear_2259_45" x1="0" y1="20" x2="40" y2="20" gradientUnits="userSpaceOnUse">
<stop stop-color="#0EA5E9"/>
<stop offset="0.5" stop-color="#6366F1"/>
<stop offset="1" stop-color="#F43F5E"/>
</linearGradient>
</defs>
</svg>
