<svg viewBox="0 0 40 40" fill="none" xmlns="http://www.w3.org/2000/svg">
<path d="M5.71429 0C2.5625 0 0 2.5625 0 5.71429V34.2857C0 37.4375 2.5625 40 5.71429 40H34.2857C37.4375 40 40 37.4375 40 34.2857V5.71429C40 2.5625 37.4375 0 34.2857 0H5.71429ZM6.16071 15.1964H12.0982V34.2857H6.16071V15.1964ZM12.5625 9.15179C12.5625 11.0536 11.0268 12.5893 9.125 12.5893C7.22321 12.5893 5.6875 11.0536 5.6875 9.15179C5.6875 7.25 7.22321 5.71429 9.125 5.71429C11.0268 5.71429 12.5625 7.25 12.5625 9.15179ZM28.3839 34.2857V25C28.3839 22.7857 28.3393 19.9375 25.3036 19.9375C22.2143 19.9375 21.7411 22.3482 21.7411 24.8393V34.2857H15.8125V15.1964H21.5V17.8036H21.5804C22.375 16.3036 24.3125 14.7232 27.1964 14.7232C33.1964 14.7232 34.3125 18.6786 34.3125 23.8214V34.2857H28.3839Z" fill="url(#paint0_linear_2259_56)"/>
<defs>
<linearGradient id="paint0_linear_2259_56" x1="0" y1="20" x2="40" y2="20" gradientUnits="userSpaceOnUse">
<stop stop-color="#0EA5E9"/>
<stop offset="0.5" stop-color="#6366F1"/>
<stop offset="1" stop-color="#F43F5E"/>
</linearGradient>
</defs>
</svg>
