<svg viewBox="0 0 40 40" fill="none" xmlns="http://www.w3.org/2000/svg">
<path d="M5.71387 0.5H34.2861C37.1614 0.500227 39.4998 2.83856 39.5 5.71387V34.2861C39.4998 37.1614 37.1614 39.4998 34.2861 39.5H5.71387C2.83856 39.4998 0.500227 37.1614 0.5 34.2861V5.71387C0.500227 2.83856 2.83856 0.500227 5.71387 0.5ZM5.66113 34.7861H12.5986V14.6963H5.66113V34.7861ZM27.1963 14.2236C24.8721 14.2237 23.1043 15.1878 22 16.373V14.6963H15.3125V34.7861H22.2412V24.8389C22.2412 23.6029 22.3636 22.4905 22.8018 21.6963C23.0144 21.311 23.2994 21.0047 23.6855 20.791C24.0747 20.5757 24.5963 20.4375 25.3037 20.4375C25.9824 20.4375 26.4489 20.596 26.7793 20.8271C27.1107 21.0591 27.3487 21.3947 27.5176 21.8223C27.8667 22.7064 27.8838 23.8712 27.8838 25V34.7861H34.8125V23.8213C34.8125 21.2387 34.538 18.8378 33.4277 17.0771C32.2841 15.2637 30.3198 14.2236 27.1963 14.2236ZM9.125 5.21387C6.94721 5.21387 5.18773 6.97363 5.1875 9.15137C5.1875 11.3293 6.94707 13.0889 9.125 13.0889C11.3029 13.0889 13.0625 11.3293 13.0625 9.15137C13.0623 6.97363 11.3028 5.21387 9.125 5.21387Z" fill="#171717" stroke="url(#paint0_linear_2259_44)"/>
<defs>
<linearGradient id="paint0_linear_2259_44" x1="0" y1="20" x2="40" y2="20" gradientUnits="userSpaceOnUse">
<stop stop-color="#0EA5E9"/>
<stop offset="0.5" stop-color="#6366F1"/>
<stop offset="1" stop-color="#F43F5E"/>
</linearGradient>
</defs>
</svg>
