<svg width="40" height="40" viewBox="0 0 40 40" fill="none" xmlns="http://www.w3.org/2000/svg">
<path d="M13.93 33.6033C11.9533 31.82 11.3767 28.0767 12.2 25.3633C13.6267 27.0733 15.605 27.6167 17.6533 27.9217C20.815 28.3933 23.92 28.2167 26.8567 26.7917C27.1933 26.6283 27.5033 26.41 27.87 26.1917C28.1467 26.98 28.2183 27.775 28.1217 28.5867C27.8883 30.5617 26.8917 32.0867 25.3083 33.2433C24.675 33.705 24.005 34.1183 23.35 34.555C21.3417 35.895 20.7983 37.4667 21.5533 39.7533L21.6267 40C20.6657 39.5876 19.8493 38.8983 19.2817 38.02C18.6911 37.1216 18.376 36.0701 18.375 34.995C18.3683 34.4617 18.3683 33.925 18.295 33.3983C18.1183 32.1167 17.5083 31.5433 16.36 31.51C15.1817 31.4767 14.2483 32.195 14.0017 33.3267C13.9817 33.415 13.955 33.5 13.9267 33.6017H13.93V33.6033ZM3.995 26.195C3.995 26.195 9.39499 23.57 14.8117 23.57L18.8967 10.9617C19.05 10.3517 19.4967 9.93833 20 9.93833C20.5033 9.93833 20.95 10.3517 21.1033 10.9617L25.1867 23.57C31.6033 23.57 36.005 26.195 36.005 26.195L26.8133 1.21167C26.55 0.475 26.105 0 25.505 0H14.495C13.895 0 13.47 0.475 13.1883 1.21167L3.995 26.195Z" fill="#FAFAFA"/>
</svg>
