<svg width="40" height="40" viewBox="0 0 40 40" fill="none" xmlns="http://www.w3.org/2000/svg">
<g clip-path="url(#clip0_2267_145)">
<path d="M12.7967 2.63834C11.7711 2.63898 10.7639 2.91062 9.8771 3.42573C8.99029 3.94084 8.25533 4.68114 7.74666 5.57167L0.441663 18.3283C0.171398 18.8047 0.0205271 19.3395 0.00195138 19.8869C-0.0166243 20.4343 0.0976477 20.9781 0.334996 21.4717L7.81166 34.445C8.32237 35.3326 9.05818 36.0698 9.94483 36.5822C10.8315 37.0946 11.8376 37.364 12.8617 37.3633L27.1983 37.3467C28.2225 37.3445 29.228 37.0724 30.1134 36.5577C30.9989 36.043 31.7329 35.3039 32.2417 34.415L39.5583 21.6567C39.8488 21.1467 40.0013 20.5698 40.0007 19.9829C40.0001 19.396 39.8465 18.8194 39.555 18.31L32.2317 5.56667C31.7222 4.6781 30.9873 3.93964 30.1012 3.4258C29.2152 2.91195 28.2093 2.6409 27.185 2.64L12.7967 2.63834ZM20.0717 4.71167V15.1833C20.0717 15.7167 20.4483 16.175 20.9717 16.2767L31.12 18.255C27.7783 24.0317 24.4433 29.8117 21.1067 35.5883C20.8233 36.0817 20.0733 35.8817 20.0733 35.3117V24.835C20.0739 24.577 19.9848 24.3269 19.8212 24.1274C19.6576 23.9279 19.4298 23.7916 19.1767 23.7417L9.05666 21.7533L19.0367 4.43167C19.3167 3.94834 20.0717 4.135 20.0717 4.71167Z" fill="#FAFAFA"/>
</g>
<defs>
<clipPath id="clip0_2267_145">
<rect width="40" height="40" fill="white"/>
</clipPath>
</defs>
</svg>
