<svg width="40" height="40" viewBox="0 0 40 40" fill="none" xmlns="http://www.w3.org/2000/svg">
<g clip-path="url(#clip0_2267_131)">
<path d="M39.2433 18.2166L21.7783 0.753262C20.7717 -0.251738 19.1417 -0.251738 18.1317 0.753262L14.5133 4.37826L19.1133 8.97827C20.1883 8.61993 21.4117 8.8616 22.2617 9.71327C23.1217 10.5716 23.3583 11.8099 22.9917 12.8799L27.4217 17.3133C28.4967 16.9416 29.7333 17.1833 30.5883 18.0383C31.79 19.2383 31.79 21.1783 30.5883 22.3783C29.39 23.5766 27.4533 23.5766 26.255 22.3783C25.3567 21.4766 25.1317 20.1499 25.5817 19.0516L21.4333 14.9249V25.7999C21.7267 25.9433 22.0033 26.1383 22.2467 26.3799C23.435 27.5816 23.435 29.5183 22.2467 30.7133C21.0483 31.9149 19.0983 31.9149 17.8983 30.7133C16.7 29.5149 16.7 27.5816 17.8983 26.3833C18.2017 26.0833 18.5433 25.8566 18.9067 25.7066V14.7249C18.545 14.5733 18.2 14.3549 17.9067 14.0566C16.9983 13.1483 16.78 11.8199 17.2467 10.7083L12.7267 6.1666L0.75 18.1349C-0.25 19.1433 -0.25 20.7749 0.75 21.7833L18.2167 39.2449C19.2233 40.2516 20.8533 40.2516 21.86 39.2449L39.2433 21.8616C40.2516 20.8566 40.2516 19.2249 39.2433 18.2166Z" fill="#FAFAFA"/>
</g>
<defs>
<clipPath id="clip0_2267_131">
<rect width="40" height="40" fill="white"/>
</clipPath>
</defs>
</svg>
