<svg width="40" height="40" viewBox="0 0 40 40" fill="none" xmlns="http://www.w3.org/2000/svg">
<g clip-path="url(#clip0_2392_1426)">
<path d="M19.6816 0.800001H19.8304C23.4176 0.800001 26.7744 1.7808 29.6496 3.488L29.5616 3.4384C32.5552 5.1888 34.9792 7.6128 36.68 10.5136L36.7296 10.6064C38.3936 13.4368 39.376 16.84 39.376 20.472C39.376 29.1216 33.8032 36.472 26.0528 39.1248L25.9136 39.1664C25.8128 39.1984 25.6976 39.216 25.5792 39.216C25.32 39.216 25.08 39.1296 24.8864 38.9856L24.8896 38.9872C24.6848 38.8032 24.5568 38.5376 24.5568 38.2416C24.5568 38.2336 24.5568 38.2256 24.5568 38.2192V38.2208C24.5568 38.1696 24.5611 37.5157 24.5696 36.2592C24.5781 35.0027 24.5824 33.8539 24.5824 32.8128C24.5936 32.6928 24.6 32.5552 24.6 32.4144C24.6 31.1472 24.0832 30.0016 23.2496 29.1744C24.2384 29.0768 25.1312 28.9136 25.9984 28.6864L25.8768 28.7136C26.7936 28.4576 27.5936 28.1168 28.336 27.6864L28.2864 27.7136C29.0992 27.2656 29.7872 26.696 30.3536 26.0208L30.3632 26.0096C30.9584 25.248 31.424 24.352 31.7072 23.3776L31.7216 23.3216C32.056 22.2288 32.248 20.9728 32.248 19.672C32.248 19.6 32.248 19.5264 32.2464 19.4544V19.4656C32.2464 19.4304 32.248 19.3904 32.248 19.3504C32.248 17.3536 31.4768 15.5376 30.2176 14.1824L30.2224 14.1872C30.4912 13.4832 30.6464 12.6704 30.6464 11.8208C30.6464 10.7824 30.4144 9.8 30 8.9184L30.0176 8.96C29.8336 8.9248 29.624 8.904 29.408 8.904C28.8736 8.904 28.3696 9.0288 27.9216 9.2496L27.9408 9.2416C27.032 9.5776 26.2544 9.9584 25.5216 10.4032L25.5824 10.368L24.608 10.9824C23.1328 10.56 21.4384 10.3168 19.688 10.3168C17.9376 10.3168 16.2432 10.56 14.6368 11.0144L14.7664 10.9824C14.4933 10.7947 14.1301 10.5637 13.6768 10.2896C13.08 9.9472 12.3744 9.616 11.6416 9.3376L11.536 9.3024C11.0672 9.056 10.512 8.912 9.92158 8.912C9.72318 8.912 9.52798 8.928 9.33918 8.96L9.35998 8.9568C8.96318 9.7952 8.73118 10.7792 8.73118 11.8176C8.73118 12.6672 8.88638 13.4816 9.17118 14.232L9.15518 14.1856C7.89918 15.536 7.12958 17.352 7.12958 19.3488C7.12958 19.3888 7.12958 19.4304 7.13118 19.4704V19.464C7.12958 19.5264 7.12958 19.5984 7.12958 19.672C7.12958 20.9664 7.32158 22.2176 7.67998 23.3952L7.65598 23.304C7.95838 24.3328 8.41758 25.2272 9.01598 26.0128L9.00158 25.992C9.56798 26.688 10.2528 27.2608 11.0288 27.6912L11.064 27.7088C11.7552 28.112 12.5568 28.4528 13.4 28.6912L13.4736 28.7088C14.2192 28.9088 15.112 29.072 16.0256 29.1632L16.0992 29.1696C15.4096 29.8544 14.9504 30.7696 14.8448 31.7904L14.8432 31.8096C14.512 31.9712 14.1264 32.1024 13.7248 32.1872L13.6912 32.1936C13.2816 32.2752 12.8128 32.3216 12.3312 32.3216C12.296 32.3216 12.2608 32.3216 12.2256 32.3216H12.2304C11.6 32.3088 11.0208 32.104 10.5424 31.7648L10.552 31.7712C9.95838 31.3568 9.47838 30.8192 9.14238 30.1936L9.13118 30.1696C8.81438 29.632 8.39678 29.1872 7.90238 28.8464L7.88798 28.8368C7.52798 28.5664 7.10398 28.3552 6.64638 28.2288L6.62078 28.2224L6.10878 28.1456C6.07198 28.1424 6.02878 28.1408 5.98558 28.1408C5.76158 28.1408 5.54878 28.1856 5.35518 28.264L5.36638 28.2592C5.22985 28.336 5.18718 28.4341 5.23838 28.5536C5.30078 28.6912 5.37758 28.8096 5.47038 28.9136L5.46878 28.912C5.56638 29.0272 5.67678 29.128 5.79678 29.216L5.80158 29.2192L5.98078 29.3472C6.43358 29.584 6.80638 29.9136 7.08958 30.312L7.09598 30.3216C7.40158 30.7008 7.67038 31.1296 7.88638 31.5888L7.90238 31.6272L8.15838 32.216C8.37438 32.8592 8.76638 33.3968 9.27838 33.7856L9.28638 33.792C9.76638 34.1664 10.3456 34.4352 10.9776 34.5568L11.0032 34.56C11.5312 34.6624 12.1456 34.7264 12.7728 34.7392H12.784C12.856 34.7424 12.9392 34.7424 13.024 34.7424C13.4416 34.7424 13.8512 34.7088 14.2512 34.6432L14.208 34.6496L14.7968 34.5472C14.7968 35.1968 14.801 35.9531 14.8096 36.816C14.8181 37.6789 14.8224 38.1445 14.8224 38.2128V38.2352C14.8224 38.5312 14.6944 38.7968 14.4896 38.9808C14.2992 39.1232 14.0592 39.2096 13.7984 39.2096C13.6784 39.2096 13.5632 39.192 13.456 39.1584L13.464 39.16C5.57758 36.4576 0.00958252 29.1072 0.00958252 20.456C0.00958252 16.8272 0.988783 13.4272 2.69918 10.5056L2.64798 10.5984C4.39838 7.6048 6.82238 5.1808 9.72318 3.48L9.81598 3.4304C12.5984 1.776 15.952 0.798401 19.5328 0.798401H19.6896H19.6816V0.800001ZM7.45758 29.0656C7.50878 28.9461 7.44905 28.8437 7.27838 28.7584C7.10772 28.7072 6.99678 28.7243 6.94558 28.8096C6.89438 28.9291 6.95412 29.0315 7.12478 29.1168C7.27838 29.2192 7.38932 29.2021 7.45758 29.0656ZM8.25278 29.9376C8.37225 29.8523 8.35518 29.7157 8.20158 29.528C8.03092 29.3744 7.89438 29.3488 7.79198 29.4512C7.67252 29.5365 7.68958 29.6731 7.84318 29.8608C8.01278 30.0283 8.14932 30.0533 8.25278 29.936V29.9376ZM9.02078 31.0896C9.17438 30.9701 9.17438 30.808 9.02078 30.6032C8.88425 30.3813 8.73918 30.3301 8.58558 30.4496C8.43198 30.5349 8.43198 30.6885 8.58558 30.9104C8.73918 31.1323 8.88425 31.192 9.02078 31.0896ZM10.096 32.1664C10.2325 32.0299 10.1984 31.8677 9.99358 31.68C9.78878 31.4752 9.61812 31.4496 9.48158 31.6032C9.32798 31.7397 9.36212 31.9019 9.58398 32.0896C9.78878 32.2944 9.95945 32.3179 10.096 32.16V32.1664ZM11.5568 32.8064C11.608 32.6187 11.497 32.4821 11.224 32.3968C10.968 32.3285 10.8058 32.3883 10.7376 32.576C10.6693 32.7637 10.7802 32.8917 11.0704 32.96C11.3264 33.0635 11.4885 33.0123 11.5568 32.8064ZM13.1712 32.9344C13.1712 32.7125 13.0261 32.6187 12.736 32.6528C12.4629 32.6528 12.3264 32.7467 12.3264 32.9344C12.3264 33.1563 12.4714 33.2501 12.7616 33.216C13.0346 33.2171 13.1712 33.1221 13.1712 32.9344ZM14.6576 32.6784C14.6235 32.4907 14.4699 32.4139 14.1968 32.448C13.9237 32.4992 13.8043 32.6272 13.8384 32.832C13.8725 33.0368 14.0261 33.1051 14.2992 33.0368C14.5723 32.9685 14.6907 32.8491 14.6576 32.6784Z" fill="#FAFAFA"/>
</g>
<defs>
<clipPath id="clip0_2392_1426">
<rect width="40" height="40" fill="white"/>
</clipPath>
</defs>
</svg>
