<svg width="40" height="40" viewBox="0 0 40 40" fill="none" xmlns="http://www.w3.org/2000/svg">
<path d="M36.3447 30.4747L22.588 1.26083C22.243 0.530493 21.523 0.04866 20.707 0.00399332C19.8698 -0.04484 19.1198 0.358993 18.6967 1.04616L3.77667 25.2118C3.3145 25.9648 3.32367 26.8937 3.803 27.6377L11.0962 38.9353C11.5308 39.6097 12.284 40 13.0667 40C13.2887 40 13.5117 39.9687 13.7312 39.9038L34.901 33.6425C35.5495 33.4507 36.0797 32.9918 36.3572 32.3837C36.6347 31.7755 36.6293 31.079 36.3447 30.4747ZM33.2645 31.7278L15.3023 37.0403C14.7537 37.2028 14.2277 36.7282 14.343 36.1747L20.7598 5.44366C20.8798 4.86899 21.6742 4.77766 21.9248 5.30983L33.8062 30.5398C34.0302 31.0158 33.7745 31.5772 33.2645 31.7278Z" fill="#FAFAFA"/>
</svg>
