<svg width="40" height="40" viewBox="0 0 40 40" fill="none" xmlns="http://www.w3.org/2000/svg">
<g clip-path="url(#clip0_2267_140)">
<path d="M27.7233 27.5067C29.1733 27.3817 30.295 26.1067 30.2233 24.5833C30.145 23.06 28.8967 21.8367 27.375 21.8367H27.2733C26.5182 21.8636 25.8047 22.1893 25.2896 22.7422C24.7745 23.2951 24.5001 24.0299 24.5267 24.785C24.5767 25.5833 24.9033 26.2333 25.35 26.7067C23.6033 30.1033 20.9817 32.6 17.0083 34.6983C14.3367 36.095 11.515 36.6217 8.76834 36.2483C6.47167 35.9233 4.67501 34.8983 3.57501 33.25C1.92834 30.7517 1.77834 28.0567 3.15001 25.36C4.15001 23.41 5.64834 21.9883 6.64834 21.2883C6.34646 20.4513 6.11237 19.5913 5.94834 18.7167C-1.44666 24.0133 -0.693327 31.2533 1.55334 34.675C3.22667 37.1717 6.64834 38.7683 10.3933 38.7683C11.3933 38.7683 12.4433 38.695 13.465 38.445C19.96 37.1967 24.8783 33.3017 27.7 27.5583L27.7233 27.5067ZM36.6367 21.2633C32.77 16.7167 27.0733 14.22 20.58 14.22H19.73C19.3083 13.2967 18.335 12.7217 17.2333 12.7217H17.1583C15.5867 12.7217 14.3617 14.0717 14.4133 15.6433C14.4633 17.14 15.7367 18.39 17.26 18.39H17.3833C17.9237 18.3691 18.4465 18.1932 18.8896 17.8832C19.3326 17.5731 19.677 17.1422 19.8817 16.6417H20.8067C24.655 16.6417 28.2983 17.765 31.62 19.9617C34.165 21.6367 35.99 23.8333 37.015 26.4567C37.9117 28.6033 37.8633 30.7017 36.94 32.4517C35.515 35.1967 33.1167 36.6467 29.9467 36.6467C27.9483 36.6467 26.0017 36.0217 25.0017 35.5733C24.4017 36.07 23.4017 36.895 22.6783 37.395C24.875 38.3917 27.0983 38.9667 29.245 38.9667C34.115 38.9667 37.735 36.2217 39.11 33.5733C40.6067 30.5767 40.4833 25.5333 36.66 21.2133L36.6367 21.2633ZM10.8167 28.4033C10.8667 29.9017 12.1383 31.15 13.6633 31.15H13.7633C14.1386 31.1415 14.5084 31.058 14.851 30.9044C15.1935 30.7508 15.5018 30.5303 15.7578 30.2557C16.0138 29.9811 16.2122 29.658 16.3414 29.3055C16.4706 28.9531 16.5279 28.5783 16.51 28.2033C16.51 26.7033 15.2117 25.4583 13.6883 25.4583H13.5883C13.4883 25.4583 13.3383 25.4583 13.2117 25.5067C11.14 22.01 10.265 18.2617 10.5917 14.22C10.7917 11.1733 11.7917 8.52501 13.5867 6.32834C15.0867 4.45501 17.9083 3.52834 19.8317 3.48167C25.225 3.38001 27.4733 10.1 27.6467 12.7717L30.1433 13.5217C29.5683 5.32834 24.4767 1.03334 19.6067 1.03334C15.0333 1.03334 10.8167 4.35501 9.11667 9.22501C6.79501 15.7167 8.31834 21.9617 11.1667 26.9567C10.9167 27.2817 10.7667 27.855 10.8167 28.4033Z" fill="#FAFAFA"/>
</g>
<defs>
<clipPath id="clip0_2267_140">
<rect width="40" height="40" fill="white"/>
</clipPath>
</defs>
</svg>
