<svg width="40" height="40" viewBox="0 0 40 40" fill="none" xmlns="http://www.w3.org/2000/svg">
<g clip-path="url(#clip0_2267_144)">
<path d="M20.0016 8C14.6683 8 11.335 10.6667 10.0016 16C12.0016 13.3333 14.335 12.3333 17.0016 13C18.5233 13.38 19.61 14.4833 20.815 15.7067C22.7766 17.6967 25.045 20 30.0016 20C35.335 20 38.6683 17.3333 40.0016 12C38.0016 14.6667 35.6683 15.6667 33.0016 15C31.48 14.62 30.3933 13.5167 29.1883 12.2933C27.2283 10.3033 24.96 8 20.0016 8ZM10.0016 20C4.66831 20 1.33498 22.6667 0.00164795 28C2.00165 25.3333 4.33498 24.3333 7.00165 25C8.52331 25.38 9.60998 26.4833 10.815 27.7067C12.7766 29.6967 15.045 32 20.0016 32C25.335 32 28.6683 29.3333 30.0016 24C28.0016 26.6667 25.6683 27.6667 23.0016 27C21.48 26.62 20.3933 25.5167 19.1883 24.2933C17.2283 22.3033 14.96 20 10.0016 20Z" fill="#FAFAFA"/>
</g>
<defs>
<clipPath id="clip0_2267_144">
<rect width="40" height="40" fill="white"/>
</clipPath>
</defs>
</svg>
