<svg width="40" height="40" viewBox="0 0 40 40" fill="none" xmlns="http://www.w3.org/2000/svg">
<g clip-path="url(#clip0_2267_139)">
<path d="M13.81 17.63L14.6633 3.20167C14.6701 3.08877 14.7143 2.98133 14.7888 2.89625C14.8633 2.81117 14.964 2.75327 15.075 2.73167L28.9617 0.0100011C29.0474 -0.00684111 29.1361 -0.00135999 29.2191 0.0259185C29.3022 0.053197 29.3768 0.101357 29.4359 0.165779C29.4949 0.2302 29.5364 0.30872 29.5564 0.393805C29.5764 0.47889 29.5742 0.567684 29.55 0.651668L26.9533 9.65667C26.9292 9.74049 26.9271 9.8291 26.947 9.91401C26.9669 9.99892 27.0083 10.0773 27.0671 10.1417C27.126 10.2061 27.2003 10.2543 27.2831 10.2817C27.3659 10.3091 27.4544 10.3148 27.54 10.2983L31.52 9.53167C31.6137 9.51335 31.7106 9.52168 31.7997 9.5557C31.8889 9.58972 31.9667 9.64807 32.0243 9.72411C32.082 9.80016 32.1171 9.89085 32.1258 9.98587C32.1344 10.0809 32.1163 10.1765 32.0733 10.2617L20.7567 32.845L20.5517 33.1617C20.5076 33.2334 20.4458 33.2925 20.3722 33.3333C20.2987 33.3742 20.2158 33.3954 20.1317 33.395C19.8367 33.395 19.5483 33.1417 19.6233 32.78L21.4483 23.945C21.4663 23.8585 21.4614 23.7687 21.4342 23.6847C21.407 23.6006 21.3584 23.525 21.2932 23.4653C21.228 23.4057 21.1484 23.364 21.0622 23.3444C20.9761 23.3247 20.8863 23.3278 20.8017 23.3533L18.4133 24.0783C18.3288 24.1041 18.239 24.1074 18.1527 24.0881C18.0665 24.0687 17.9868 24.0272 17.9214 23.9677C17.856 23.9082 17.8073 23.8327 17.7798 23.7487C17.7524 23.6647 17.7473 23.5749 17.765 23.4883L18.915 17.8633C18.9324 17.7794 18.9284 17.6923 18.9033 17.6103C18.8782 17.5283 18.8328 17.4539 18.7713 17.3941C18.7098 17.3343 18.6343 17.291 18.5516 17.2681C18.4689 17.2452 18.3818 17.2436 18.2983 17.2633L14.4317 18.1567C14.3545 18.1744 14.2743 18.1739 14.1973 18.1553C14.1204 18.1366 14.0488 18.1003 13.9883 18.0492C13.9278 17.9981 13.8801 17.9336 13.8489 17.8608C13.8176 17.7881 13.8037 17.709 13.8083 17.63H13.81ZM38.77 4.42L28.8067 6.23333L27.9 9.37833L31.3617 8.71167C31.6299 8.65819 31.9082 8.68852 32.1586 8.79853C32.409 8.90855 32.6196 9.09293 32.7617 9.32667C32.8823 9.52106 32.9508 9.74321 32.9608 9.97175C32.9707 10.2003 32.9216 10.4276 32.8183 10.6317L21.5 33.2167L21.4783 33.2583L21.4533 33.2967L21.25 33.6133C21.1298 33.8016 20.9643 33.9567 20.7686 34.0645C20.573 34.1722 20.3534 34.2291 20.13 34.23C19.9277 34.2289 19.7282 34.1832 19.5455 34.0962C19.3629 34.0092 19.2017 33.883 19.0733 33.7267C18.9485 33.5722 18.8598 33.3917 18.8137 33.1985C18.7675 33.0053 18.7651 32.8042 18.8067 32.61L20.5217 24.3083L18.655 24.875C18.3997 24.9519 18.1273 24.9515 17.8722 24.8738C17.6171 24.7961 17.3908 24.6445 17.2217 24.4383C17.0956 24.2844 17.0055 24.1043 16.9579 23.9111C16.9104 23.7179 16.9065 23.5165 16.9467 23.3217L17.9967 18.1883L14.6183 18.9683C14.3896 19.0207 14.1512 19.0124 13.9267 18.9443C13.7022 18.8762 13.4994 18.7506 13.3383 18.58C13.2135 18.4465 13.1171 18.289 13.0549 18.1171C12.9927 17.9452 12.9661 17.7625 12.9767 17.58L13.625 6.63L1.22501 4.41333C1.03396 4.37886 0.837034 4.39962 0.657372 4.47318C0.47771 4.54674 0.322773 4.67005 0.210762 4.82861C0.0987503 4.98718 0.0343174 5.17442 0.0250323 5.36834C0.0157471 5.56225 0.0619954 5.75479 0.158344 5.92333L19.3 39.485C19.3894 39.6421 19.519 39.7726 19.6754 39.8632C19.8318 39.9537 20.0095 40.0011 20.1903 40.0004C20.371 39.9997 20.5484 39.951 20.7041 39.8593C20.8599 39.7676 20.9884 39.6361 21.0767 39.4783L39.8433 5.92C39.9374 5.75116 39.9816 5.55906 39.9707 5.36608C39.9598 5.17311 39.8943 4.9872 39.7818 4.83002C39.6693 4.67284 39.5145 4.55084 39.3354 4.47825C39.1562 4.40566 38.9602 4.38546 38.77 4.42Z" fill="#FAFAFA"/>
</g>
<defs>
<clipPath id="clip0_2267_139">
<rect width="40" height="40" fill="white"/>
</clipPath>
</defs>
</svg>
