<svg width="40" height="40" viewBox="0 0 40 40" fill="none" xmlns="http://www.w3.org/2000/svg">
<g clip-path="url(#clip0_2267_132)">
<mask id="mask0_2267_132" style="mask-type:luminance" maskUnits="userSpaceOnUse" x="0" y="0" width="40" height="40">
<path d="M28.2543 39.6258C28.8819 39.8703 29.5975 39.8546 30.231 39.5498L38.4342 35.6026C39.2962 35.1878 39.8444 34.3153 39.8444 33.3582V6.59328C39.8444 5.63621 39.2962 4.76382 38.4342 4.34904L30.231 0.401644C29.3997 0.00165282 28.4268 0.0996258 27.6973 0.630028C27.593 0.705798 27.4937 0.790396 27.4006 0.883625L11.6963 15.2109L4.85591 10.0184C4.21913 9.53507 3.32845 9.57467 2.73704 10.1126L0.543091 12.1084C-0.180316 12.7664 -0.181146 13.9045 0.541299 14.5636L6.47356 19.9757L0.541299 25.3878C-0.181146 26.047 -0.180316 27.185 0.543091 27.8431L2.73704 29.8387C3.32845 30.3768 4.21913 30.4163 4.85591 29.933L11.6963 24.7405L27.4006 39.0678C27.649 39.3164 27.9407 39.5036 28.2543 39.6258ZM29.8893 10.9306L17.9734 19.9757L29.8893 29.0208V10.9306Z" fill="white"/>
</mask>
<g mask="url(#mask0_2267_132)">
<path d="M38.4586 4.35544L30.2489 0.402607C29.2987 -0.0549309 28.163 0.138069 27.4172 0.883843L0.541628 25.3881C-0.181256 26.0472 -0.180425 27.1853 0.543421 27.8433L2.7387 29.839C3.33048 30.377 4.2217 30.4166 4.85886 29.9333L37.2232 5.3809C38.309 4.55721 39.8685 5.33162 39.8685 6.69449V6.59917C39.8685 5.64252 39.3205 4.77044 38.4586 4.35544Z" fill="#FAFAFA"/>
</g>
<mask id="mask1_2267_132" style="mask-type:luminance" maskUnits="userSpaceOnUse" x="0" y="0" width="40" height="40">
<path d="M28.2543 39.6258C28.8819 39.8703 29.5975 39.8546 30.231 39.5498L38.4342 35.6026C39.2962 35.1878 39.8444 34.3153 39.8444 33.3582V6.59328C39.8444 5.63621 39.2962 4.76382 38.4342 4.34904L30.231 0.401644C29.3997 0.00165282 28.4268 0.0996258 27.6973 0.630028C27.593 0.705798 27.4937 0.790396 27.4006 0.883625L11.6963 15.2109L4.85591 10.0184C4.21913 9.53507 3.32845 9.57467 2.73704 10.1126L0.543091 12.1084C-0.180316 12.7664 -0.181146 13.9045 0.541299 14.5636L6.47356 19.9757L0.541299 25.3878C-0.181146 26.047 -0.180316 27.185 0.543091 27.8431L2.73704 29.8387C3.32845 30.3768 4.21913 30.4163 4.85591 29.933L11.6963 24.7405L27.4006 39.0678C27.649 39.3164 27.9407 39.5036 28.2543 39.6258ZM29.8893 10.9306L17.9734 19.9757L29.8893 29.0208V10.9306Z" fill="white"/>
</mask>
<g mask="url(#mask1_2267_132)">
<path d="M38.4586 35.5962L30.2489 39.5491C29.2987 40.0065 28.163 39.8135 27.4172 39.0678L0.541628 14.5636C-0.181256 13.9045 -0.180425 12.7664 0.543421 12.1084L2.7387 10.1126C3.33048 9.57466 4.2217 9.53505 4.85886 10.0184L37.2232 34.5707C38.309 35.3944 39.8685 34.6201 39.8685 33.2571V33.3525C39.8685 34.3091 39.3205 35.1811 38.4586 35.5962Z" fill="#FAFAFA"/>
</g>
<mask id="mask2_2267_132" style="mask-type:luminance" maskUnits="userSpaceOnUse" x="0" y="0" width="40" height="40">
<path d="M28.2543 39.6258C28.8819 39.8703 29.5975 39.8546 30.231 39.5498L38.4342 35.6026C39.2962 35.1878 39.8444 34.3153 39.8444 33.3582V6.59328C39.8444 5.63621 39.2962 4.76382 38.4342 4.34904L30.231 0.401644C29.3997 0.00165282 28.4268 0.0996258 27.6973 0.630028C27.593 0.705798 27.4937 0.790396 27.4006 0.883625L11.6963 15.2109L4.85591 10.0184C4.21913 9.53507 3.32845 9.57467 2.73704 10.1126L0.543091 12.1084C-0.180316 12.7664 -0.181146 13.9045 0.541299 14.5636L6.47356 19.9757L0.541299 25.3878C-0.181146 26.047 -0.180316 27.185 0.543091 27.8431L2.73704 29.8387C3.32845 30.3768 4.21913 30.4163 4.85591 29.933L11.6963 24.7405L27.4006 39.0678C27.649 39.3164 27.9407 39.5036 28.2543 39.6258ZM29.8893 10.9306L17.9734 19.9757L29.8893 29.0208V10.9306Z" fill="white"/>
</mask>
<g mask="url(#mask2_2267_132)">
<path d="M30.2232 39.5523C29.2727 40.0094 28.1369 39.8162 27.3911 39.0704C28.31 39.9893 29.8814 39.3384 29.8814 38.0388V1.91766C29.8814 0.618044 28.31 -0.0328117 27.3911 0.886159C28.1369 0.140315 29.2727 -0.0529568 30.2232 0.404177L38.4314 4.35157C39.294 4.76636 39.8425 5.63875 39.8425 6.59582V33.3608C39.8425 34.3179 39.294 35.1902 38.4314 35.605L30.2232 39.5523Z" fill="#FAFAFA"/>
</g>
</g>
<defs>
<clipPath id="clip0_2267_132">
<rect width="40" height="40" fill="white"/>
</clipPath>
</defs>
</svg>
